<mxfile host="app.diagrams.net" modified="2021-11-03T21:38:06.207Z" agent="5.0 (Windows NT 10.0; Win64; x64) AppleWebKit/537.36 (KHTML, like Gecko) Chrome/94.0.4606.81 Safari/537.36 OPR/80.0.4170.61" etag="uMeRzRkpCTyLoJZZWxHv" version="15.5.9" type="github">
  <diagram id="R2lEEEUBdFMjLlhIrx00" name="Page-1">
    <mxGraphModel dx="2668" dy="2308" grid="1" gridSize="10" guides="1" tooltips="1" connect="1" arrows="1" fold="1" page="1" pageScale="1" pageWidth="850" pageHeight="1100" math="0" shadow="0" extFonts="Permanent Marker^https://fonts.googleapis.com/css?family=Permanent+Marker">
      <root>
        <mxCell id="0" />
        <mxCell id="1" parent="0" />
        <mxCell id="lfYYvLIwnEgfPad5Opi9-32" style="edgeStyle=orthogonalEdgeStyle;rounded=0;orthogonalLoop=1;jettySize=auto;html=1;exitX=0.5;exitY=1;exitDx=0;exitDy=0;fontColor=#000000;" edge="1" parent="1" source="lfYYvLIwnEgfPad5Opi9-1" target="lfYYvLIwnEgfPad5Opi9-7">
          <mxGeometry relative="1" as="geometry" />
        </mxCell>
        <mxCell id="lfYYvLIwnEgfPad5Opi9-1" value="Cliente" style="rounded=0;whiteSpace=wrap;html=1;fillColor=#66FF66;" vertex="1" parent="1">
          <mxGeometry x="400" y="40" width="120" height="60" as="geometry" />
        </mxCell>
        <mxCell id="lfYYvLIwnEgfPad5Opi9-27" style="edgeStyle=orthogonalEdgeStyle;rounded=0;orthogonalLoop=1;jettySize=auto;html=1;exitX=1;exitY=0.5;exitDx=0;exitDy=0;entryX=0.342;entryY=-0.067;entryDx=0;entryDy=0;entryPerimeter=0;fontColor=#000000;" edge="1" parent="1" source="lfYYvLIwnEgfPad5Opi9-2" target="lfYYvLIwnEgfPad5Opi9-1">
          <mxGeometry relative="1" as="geometry" />
        </mxCell>
        <mxCell id="lfYYvLIwnEgfPad5Opi9-2" value="&lt;b style=&quot;background-color: rgb(255 , 36 , 36)&quot;&gt;CPF&lt;/b&gt;" style="ellipse;whiteSpace=wrap;html=1;fillColor=#007FFF;" vertex="1" parent="1">
          <mxGeometry x="180" y="-60" width="170" height="50" as="geometry" />
        </mxCell>
        <mxCell id="lfYYvLIwnEgfPad5Opi9-28" style="edgeStyle=orthogonalEdgeStyle;rounded=0;orthogonalLoop=1;jettySize=auto;html=1;exitX=1;exitY=0.5;exitDx=0;exitDy=0;entryX=0.167;entryY=-0.017;entryDx=0;entryDy=0;entryPerimeter=0;fontColor=#000000;" edge="1" parent="1" source="lfYYvLIwnEgfPad5Opi9-3" target="lfYYvLIwnEgfPad5Opi9-1">
          <mxGeometry relative="1" as="geometry" />
        </mxCell>
        <mxCell id="lfYYvLIwnEgfPad5Opi9-3" value="&lt;span style=&quot;background-color: rgb(255 , 255 , 255)&quot;&gt;Nome&lt;/span&gt;" style="ellipse;whiteSpace=wrap;html=1;labelBackgroundColor=#FF2424;fillColor=#007FFF;" vertex="1" parent="1">
          <mxGeometry x="180" width="170" height="40" as="geometry" />
        </mxCell>
        <mxCell id="lfYYvLIwnEgfPad5Opi9-29" style="edgeStyle=orthogonalEdgeStyle;rounded=0;orthogonalLoop=1;jettySize=auto;html=1;exitX=1;exitY=0.5;exitDx=0;exitDy=0;entryX=0;entryY=0.5;entryDx=0;entryDy=0;fontColor=#000000;" edge="1" parent="1" source="lfYYvLIwnEgfPad5Opi9-4" target="lfYYvLIwnEgfPad5Opi9-1">
          <mxGeometry relative="1" as="geometry" />
        </mxCell>
        <mxCell id="lfYYvLIwnEgfPad5Opi9-4" value="&lt;span style=&quot;background-color: rgb(255 , 255 , 255)&quot;&gt;Endereço&lt;/span&gt;" style="ellipse;whiteSpace=wrap;html=1;labelBackgroundColor=#FF2424;fillColor=#007FFF;" vertex="1" parent="1">
          <mxGeometry x="180" y="50" width="170" height="40" as="geometry" />
        </mxCell>
        <mxCell id="lfYYvLIwnEgfPad5Opi9-30" style="edgeStyle=orthogonalEdgeStyle;rounded=0;orthogonalLoop=1;jettySize=auto;html=1;exitX=1;exitY=0.5;exitDx=0;exitDy=0;entryX=0;entryY=0.75;entryDx=0;entryDy=0;fontColor=#000000;" edge="1" parent="1" source="lfYYvLIwnEgfPad5Opi9-5" target="lfYYvLIwnEgfPad5Opi9-1">
          <mxGeometry relative="1" as="geometry" />
        </mxCell>
        <mxCell id="lfYYvLIwnEgfPad5Opi9-5" value="&lt;span style=&quot;background-color: rgb(255 , 255 , 255)&quot;&gt;Telefone&lt;/span&gt;" style="ellipse;whiteSpace=wrap;html=1;labelBackgroundColor=#FF2424;fillColor=#007FFF;" vertex="1" parent="1">
          <mxGeometry x="180" y="100" width="170" height="40" as="geometry" />
        </mxCell>
        <mxCell id="lfYYvLIwnEgfPad5Opi9-31" style="edgeStyle=orthogonalEdgeStyle;rounded=0;orthogonalLoop=1;jettySize=auto;html=1;entryX=0;entryY=1;entryDx=0;entryDy=0;fontColor=#000000;" edge="1" parent="1" source="lfYYvLIwnEgfPad5Opi9-6" target="lfYYvLIwnEgfPad5Opi9-1">
          <mxGeometry relative="1" as="geometry" />
        </mxCell>
        <mxCell id="lfYYvLIwnEgfPad5Opi9-6" value="&lt;span style=&quot;background-color: rgb(255 , 255 , 255)&quot;&gt;Data de nascimento&lt;/span&gt;" style="ellipse;whiteSpace=wrap;html=1;labelBackgroundColor=#FF2424;fillColor=#007FFF;" vertex="1" parent="1">
          <mxGeometry x="180" y="150" width="170" height="40" as="geometry" />
        </mxCell>
        <mxCell id="lfYYvLIwnEgfPad5Opi9-38" style="edgeStyle=orthogonalEdgeStyle;rounded=0;orthogonalLoop=1;jettySize=auto;html=1;exitX=0.5;exitY=1;exitDx=0;exitDy=0;entryX=0.425;entryY=0.017;entryDx=0;entryDy=0;entryPerimeter=0;fontColor=#000000;" edge="1" parent="1" source="lfYYvLIwnEgfPad5Opi9-7" target="lfYYvLIwnEgfPad5Opi9-8">
          <mxGeometry relative="1" as="geometry" />
        </mxCell>
        <mxCell id="lfYYvLIwnEgfPad5Opi9-7" value="Possui" style="rhombus;whiteSpace=wrap;html=1;labelBackgroundColor=#FFFFFF;fontColor=#000000;fillColor=#FFCC99;" vertex="1" parent="1">
          <mxGeometry x="420" y="170" width="80" height="80" as="geometry" />
        </mxCell>
        <mxCell id="lfYYvLIwnEgfPad5Opi9-39" style="edgeStyle=orthogonalEdgeStyle;rounded=0;orthogonalLoop=1;jettySize=auto;html=1;exitX=0.5;exitY=1;exitDx=0;exitDy=0;entryX=0.425;entryY=0.013;entryDx=0;entryDy=0;entryPerimeter=0;fontColor=#000000;" edge="1" parent="1" source="lfYYvLIwnEgfPad5Opi9-8" target="lfYYvLIwnEgfPad5Opi9-14">
          <mxGeometry relative="1" as="geometry" />
        </mxCell>
        <mxCell id="lfYYvLIwnEgfPad5Opi9-60" style="edgeStyle=orthogonalEdgeStyle;rounded=0;orthogonalLoop=1;jettySize=auto;html=1;exitX=1;exitY=0.5;exitDx=0;exitDy=0;entryX=0;entryY=0.5;entryDx=0;entryDy=0;fontColor=#000000;" edge="1" parent="1" source="lfYYvLIwnEgfPad5Opi9-8" target="lfYYvLIwnEgfPad5Opi9-44">
          <mxGeometry relative="1" as="geometry" />
        </mxCell>
        <mxCell id="lfYYvLIwnEgfPad5Opi9-8" value="Conta" style="rounded=0;whiteSpace=wrap;html=1;labelBackgroundColor=#FFFFFF;fontColor=#000000;fillColor=#66FF66;" vertex="1" parent="1">
          <mxGeometry x="410" y="320" width="120" height="60" as="geometry" />
        </mxCell>
        <mxCell id="lfYYvLIwnEgfPad5Opi9-33" style="edgeStyle=orthogonalEdgeStyle;rounded=0;orthogonalLoop=1;jettySize=auto;html=1;exitX=1;exitY=0.5;exitDx=0;exitDy=0;entryX=0;entryY=0;entryDx=0;entryDy=0;fontColor=#000000;" edge="1" parent="1" source="lfYYvLIwnEgfPad5Opi9-9" target="lfYYvLIwnEgfPad5Opi9-8">
          <mxGeometry relative="1" as="geometry" />
        </mxCell>
        <mxCell id="lfYYvLIwnEgfPad5Opi9-9" value="&lt;b style=&quot;background-color: rgb(255 , 36 , 36)&quot;&gt;Código&lt;/b&gt;" style="ellipse;whiteSpace=wrap;html=1;fillColor=#007FFF;" vertex="1" parent="1">
          <mxGeometry x="180" y="240" width="170" height="50" as="geometry" />
        </mxCell>
        <mxCell id="lfYYvLIwnEgfPad5Opi9-34" style="edgeStyle=orthogonalEdgeStyle;rounded=0;orthogonalLoop=1;jettySize=auto;html=1;exitX=1;exitY=0.5;exitDx=0;exitDy=0;fontColor=#000000;" edge="1" parent="1" source="lfYYvLIwnEgfPad5Opi9-10">
          <mxGeometry relative="1" as="geometry">
            <mxPoint x="410" y="330" as="targetPoint" />
          </mxGeometry>
        </mxCell>
        <mxCell id="lfYYvLIwnEgfPad5Opi9-10" value="&lt;span style=&quot;background-color: rgb(255 , 255 , 255)&quot;&gt;Agência&lt;/span&gt;" style="ellipse;whiteSpace=wrap;html=1;labelBackgroundColor=#FF2424;fillColor=#007FFF;" vertex="1" parent="1">
          <mxGeometry x="180" y="300" width="170" height="40" as="geometry" />
        </mxCell>
        <mxCell id="lfYYvLIwnEgfPad5Opi9-35" style="edgeStyle=orthogonalEdgeStyle;rounded=0;orthogonalLoop=1;jettySize=auto;html=1;exitX=1;exitY=0.5;exitDx=0;exitDy=0;entryX=-0.025;entryY=0.4;entryDx=0;entryDy=0;entryPerimeter=0;fontColor=#000000;" edge="1" parent="1" source="lfYYvLIwnEgfPad5Opi9-11" target="lfYYvLIwnEgfPad5Opi9-8">
          <mxGeometry relative="1" as="geometry" />
        </mxCell>
        <mxCell id="lfYYvLIwnEgfPad5Opi9-11" value="&lt;span style=&quot;background-color: rgb(255 , 255 , 255)&quot;&gt;Dono&lt;/span&gt;&lt;span style=&quot;color: rgba(0 , 0 , 0 , 0) ; font-family: monospace ; font-size: 0px ; background-color: rgb(248 , 249 , 250)&quot;&gt;%3CmxGraphModel%3E%3Croot%3E%3CmxCell%20id%3D%220%22%2F%3E%3CmxCell%20id%3D%221%22%20parent%3D%220%22%2F%3E%3CmxCell%20id%3D%222%22%20value%3D%22%26lt%3Bspan%20style%3D%26quot%3Bbackground-color%3A%20rgb(255%20%2C%20255%20%2C%20255)%26quot%3B%26gt%3BAg%C3%AAncia%26lt%3B%2Fspan%26gt%3B%22%20style%3D%22ellipse%3BwhiteSpace%3Dwrap%3Bhtml%3D1%3BlabelBackgroundColor%3D%23FF2424%3B%22%20vertex%3D%221%22%20parent%3D%221%22%3E%3CmxGeometry%20x%3D%22180%22%20y%3D%22300%22%20width%3D%22170%22%20height%3D%2240%22%20as%3D%22geometry%22%2F%3E%3C%2FmxCell%3E%3C%2Froot%3E%3C%2FmxGraphModel%3E&lt;/span&gt;" style="ellipse;whiteSpace=wrap;html=1;labelBackgroundColor=#FF2424;fillColor=#007FFF;" vertex="1" parent="1">
          <mxGeometry x="180" y="350" width="170" height="40" as="geometry" />
        </mxCell>
        <mxCell id="lfYYvLIwnEgfPad5Opi9-36" style="edgeStyle=orthogonalEdgeStyle;rounded=0;orthogonalLoop=1;jettySize=auto;html=1;exitX=1;exitY=0.5;exitDx=0;exitDy=0;entryX=0;entryY=0.75;entryDx=0;entryDy=0;fontColor=#000000;" edge="1" parent="1" source="lfYYvLIwnEgfPad5Opi9-12" target="lfYYvLIwnEgfPad5Opi9-8">
          <mxGeometry relative="1" as="geometry" />
        </mxCell>
        <mxCell id="lfYYvLIwnEgfPad5Opi9-12" value="&lt;span style=&quot;background-color: rgb(255 , 255 , 255)&quot;&gt;Saldo&lt;/span&gt;" style="ellipse;whiteSpace=wrap;html=1;labelBackgroundColor=#FF2424;fillColor=#007FFF;" vertex="1" parent="1">
          <mxGeometry x="180" y="400" width="170" height="40" as="geometry" />
        </mxCell>
        <mxCell id="lfYYvLIwnEgfPad5Opi9-37" style="edgeStyle=orthogonalEdgeStyle;rounded=0;orthogonalLoop=1;jettySize=auto;html=1;exitX=1;exitY=0.5;exitDx=0;exitDy=0;entryX=0;entryY=1;entryDx=0;entryDy=0;fontColor=#000000;" edge="1" parent="1" source="lfYYvLIwnEgfPad5Opi9-13" target="lfYYvLIwnEgfPad5Opi9-8">
          <mxGeometry relative="1" as="geometry" />
        </mxCell>
        <mxCell id="lfYYvLIwnEgfPad5Opi9-13" value="&lt;span style=&quot;background-color: rgb(255 , 255 , 255)&quot;&gt;Tipo&lt;/span&gt;" style="ellipse;whiteSpace=wrap;html=1;labelBackgroundColor=#FF2424;fillColor=#007FFF;" vertex="1" parent="1">
          <mxGeometry x="180" y="450" width="170" height="40" as="geometry" />
        </mxCell>
        <mxCell id="lfYYvLIwnEgfPad5Opi9-40" style="edgeStyle=orthogonalEdgeStyle;rounded=0;orthogonalLoop=1;jettySize=auto;html=1;exitX=1;exitY=0.5;exitDx=0;exitDy=0;entryX=0;entryY=0.5;entryDx=0;entryDy=0;fontColor=#000000;" edge="1" parent="1" source="lfYYvLIwnEgfPad5Opi9-14" target="lfYYvLIwnEgfPad5Opi9-15">
          <mxGeometry relative="1" as="geometry" />
        </mxCell>
        <mxCell id="lfYYvLIwnEgfPad5Opi9-14" value="Faz" style="rhombus;whiteSpace=wrap;html=1;labelBackgroundColor=#FFFFFF;fontColor=#000000;fillColor=#FFCC99;" vertex="1" parent="1">
          <mxGeometry x="440" y="470" width="80" height="80" as="geometry" />
        </mxCell>
        <mxCell id="lfYYvLIwnEgfPad5Opi9-15" value="Transação" style="rounded=0;whiteSpace=wrap;html=1;labelBackgroundColor=#FFFFFF;fontColor=#000000;fillColor=#66FF66;" vertex="1" parent="1">
          <mxGeometry x="610" y="480" width="120" height="60" as="geometry" />
        </mxCell>
        <mxCell id="lfYYvLIwnEgfPad5Opi9-41" style="edgeStyle=orthogonalEdgeStyle;rounded=0;orthogonalLoop=1;jettySize=auto;html=1;exitX=1;exitY=0;exitDx=0;exitDy=0;entryX=0;entryY=0.75;entryDx=0;entryDy=0;fontColor=#000000;" edge="1" parent="1" source="lfYYvLIwnEgfPad5Opi9-16" target="lfYYvLIwnEgfPad5Opi9-15">
          <mxGeometry relative="1" as="geometry" />
        </mxCell>
        <mxCell id="lfYYvLIwnEgfPad5Opi9-16" value="&lt;span style=&quot;background-color: rgb(255 , 255 , 255)&quot;&gt;Tipo&lt;/span&gt;" style="ellipse;whiteSpace=wrap;html=1;labelBackgroundColor=#FF2424;fillColor=#EFFF61;" vertex="1" parent="1">
          <mxGeometry x="340" y="580" width="170" height="40" as="geometry" />
        </mxCell>
        <mxCell id="lfYYvLIwnEgfPad5Opi9-43" style="edgeStyle=orthogonalEdgeStyle;rounded=0;orthogonalLoop=1;jettySize=auto;html=1;exitX=0;exitY=0;exitDx=0;exitDy=0;entryX=0.608;entryY=1.05;entryDx=0;entryDy=0;entryPerimeter=0;fontColor=#000000;" edge="1" parent="1" source="lfYYvLIwnEgfPad5Opi9-17" target="lfYYvLIwnEgfPad5Opi9-15">
          <mxGeometry relative="1" as="geometry" />
        </mxCell>
        <mxCell id="lfYYvLIwnEgfPad5Opi9-17" value="&lt;span style=&quot;background-color: rgb(255 , 255 , 255)&quot;&gt;Conta origem&lt;/span&gt;" style="ellipse;whiteSpace=wrap;html=1;labelBackgroundColor=#FF2424;fillColor=#007FFF;" vertex="1" parent="1">
          <mxGeometry x="700" y="580" width="170" height="40" as="geometry" />
        </mxCell>
        <mxCell id="lfYYvLIwnEgfPad5Opi9-42" style="edgeStyle=orthogonalEdgeStyle;rounded=0;orthogonalLoop=1;jettySize=auto;html=1;exitX=0.5;exitY=0;exitDx=0;exitDy=0;entryX=0.133;entryY=1;entryDx=0;entryDy=0;entryPerimeter=0;fontColor=#000000;" edge="1" parent="1" source="lfYYvLIwnEgfPad5Opi9-18" target="lfYYvLIwnEgfPad5Opi9-15">
          <mxGeometry relative="1" as="geometry" />
        </mxCell>
        <mxCell id="lfYYvLIwnEgfPad5Opi9-18" value="&lt;span style=&quot;background-color: rgb(255 , 255 , 255)&quot;&gt;Valor&lt;/span&gt;" style="ellipse;whiteSpace=wrap;html=1;labelBackgroundColor=#FF2424;fillColor=#007FFF;" vertex="1" parent="1">
          <mxGeometry x="530" y="590" width="170" height="40" as="geometry" />
        </mxCell>
        <mxCell id="lfYYvLIwnEgfPad5Opi9-24" style="edgeStyle=orthogonalEdgeStyle;rounded=0;orthogonalLoop=1;jettySize=auto;html=1;exitX=1;exitY=0.5;exitDx=0;exitDy=0;entryX=0.5;entryY=1;entryDx=0;entryDy=0;fontColor=#000000;" edge="1" parent="1" source="lfYYvLIwnEgfPad5Opi9-20" target="lfYYvLIwnEgfPad5Opi9-16">
          <mxGeometry relative="1" as="geometry" />
        </mxCell>
        <mxCell id="lfYYvLIwnEgfPad5Opi9-25" style="edgeStyle=orthogonalEdgeStyle;rounded=0;orthogonalLoop=1;jettySize=auto;html=1;exitX=0;exitY=0.25;exitDx=0;exitDy=0;entryX=0.658;entryY=0.017;entryDx=0;entryDy=0;entryPerimeter=0;fontColor=#000000;" edge="1" parent="1" source="lfYYvLIwnEgfPad5Opi9-20" target="lfYYvLIwnEgfPad5Opi9-22">
          <mxGeometry relative="1" as="geometry" />
        </mxCell>
        <mxCell id="lfYYvLIwnEgfPad5Opi9-26" style="edgeStyle=orthogonalEdgeStyle;rounded=0;orthogonalLoop=1;jettySize=auto;html=1;exitX=0;exitY=0.75;exitDx=0;exitDy=0;entryX=0.25;entryY=0;entryDx=0;entryDy=0;fontColor=#000000;" edge="1" parent="1" source="lfYYvLIwnEgfPad5Opi9-20" target="lfYYvLIwnEgfPad5Opi9-23">
          <mxGeometry relative="1" as="geometry" />
        </mxCell>
        <mxCell id="lfYYvLIwnEgfPad5Opi9-20" value="" style="triangle;whiteSpace=wrap;html=1;labelBackgroundColor=#FFFFFF;fontColor=#000000;fillColor=#EFFF61;direction=north;" vertex="1" parent="1">
          <mxGeometry x="385" y="650" width="85" height="70" as="geometry" />
        </mxCell>
        <mxCell id="lfYYvLIwnEgfPad5Opi9-22" value="Deposito" style="rounded=0;whiteSpace=wrap;html=1;labelBackgroundColor=#FFFFFF;fontColor=#000000;fillColor=#33FFFF;" vertex="1" parent="1">
          <mxGeometry x="300" y="750" width="120" height="60" as="geometry" />
        </mxCell>
        <mxCell id="lfYYvLIwnEgfPad5Opi9-23" value="Saque" style="rounded=0;whiteSpace=wrap;html=1;labelBackgroundColor=#FFFFFF;fontColor=#000000;fillColor=#33FFFF;" vertex="1" parent="1">
          <mxGeometry x="460" y="750" width="120" height="60" as="geometry" />
        </mxCell>
        <mxCell id="lfYYvLIwnEgfPad5Opi9-51" style="edgeStyle=orthogonalEdgeStyle;rounded=0;orthogonalLoop=1;jettySize=auto;html=1;exitX=0.5;exitY=0;exitDx=0;exitDy=0;entryX=0.5;entryY=1;entryDx=0;entryDy=0;fontColor=#000000;" edge="1" parent="1" source="lfYYvLIwnEgfPad5Opi9-44" target="lfYYvLIwnEgfPad5Opi9-45">
          <mxGeometry relative="1" as="geometry" />
        </mxCell>
        <mxCell id="lfYYvLIwnEgfPad5Opi9-44" value="Pertence" style="rhombus;whiteSpace=wrap;html=1;labelBackgroundColor=#FFFFFF;fontColor=#000000;fillColor=#FFCC99;" vertex="1" parent="1">
          <mxGeometry x="610" y="310" width="80" height="80" as="geometry" />
        </mxCell>
        <mxCell id="lfYYvLIwnEgfPad5Opi9-45" value="Agencia" style="rounded=0;whiteSpace=wrap;html=1;labelBackgroundColor=#FFFFFF;fontColor=#000000;fillColor=#66FF66;" vertex="1" parent="1">
          <mxGeometry x="590" y="220" width="120" height="60" as="geometry" />
        </mxCell>
        <mxCell id="lfYYvLIwnEgfPad5Opi9-55" style="edgeStyle=orthogonalEdgeStyle;rounded=0;orthogonalLoop=1;jettySize=auto;html=1;exitX=0;exitY=0.5;exitDx=0;exitDy=0;entryX=0.333;entryY=0.083;entryDx=0;entryDy=0;entryPerimeter=0;fontColor=#000000;" edge="1" parent="1" source="lfYYvLIwnEgfPad5Opi9-46" target="lfYYvLIwnEgfPad5Opi9-45">
          <mxGeometry relative="1" as="geometry" />
        </mxCell>
        <mxCell id="lfYYvLIwnEgfPad5Opi9-46" value="&lt;b style=&quot;background-color: rgb(255 , 36 , 36)&quot;&gt;Código&lt;/b&gt;" style="ellipse;whiteSpace=wrap;html=1;fillColor=#007FFF;" vertex="1" parent="1">
          <mxGeometry x="720" y="70" width="170" height="50" as="geometry" />
        </mxCell>
        <mxCell id="lfYYvLIwnEgfPad5Opi9-54" style="edgeStyle=orthogonalEdgeStyle;rounded=0;orthogonalLoop=1;jettySize=auto;html=1;exitX=0;exitY=0.5;exitDx=0;exitDy=0;entryX=0.65;entryY=0.033;entryDx=0;entryDy=0;entryPerimeter=0;fontColor=#000000;" edge="1" parent="1" source="lfYYvLIwnEgfPad5Opi9-47" target="lfYYvLIwnEgfPad5Opi9-45">
          <mxGeometry relative="1" as="geometry" />
        </mxCell>
        <mxCell id="lfYYvLIwnEgfPad5Opi9-47" value="&lt;span style=&quot;background-color: rgb(255 , 255 , 255)&quot;&gt;Nome&lt;/span&gt;" style="ellipse;whiteSpace=wrap;html=1;labelBackgroundColor=#FF2424;fillColor=#007FFF;" vertex="1" parent="1">
          <mxGeometry x="720" y="130" width="170" height="40" as="geometry" />
        </mxCell>
        <mxCell id="lfYYvLIwnEgfPad5Opi9-53" style="edgeStyle=orthogonalEdgeStyle;rounded=0;orthogonalLoop=1;jettySize=auto;html=1;exitX=0;exitY=0.5;exitDx=0;exitDy=0;entryX=0.9;entryY=0.033;entryDx=0;entryDy=0;entryPerimeter=0;fontColor=#000000;" edge="1" parent="1" source="lfYYvLIwnEgfPad5Opi9-48" target="lfYYvLIwnEgfPad5Opi9-45">
          <mxGeometry relative="1" as="geometry" />
        </mxCell>
        <mxCell id="lfYYvLIwnEgfPad5Opi9-48" value="&lt;span style=&quot;background-color: rgb(255 , 255 , 255)&quot;&gt;Endereço&lt;/span&gt;" style="ellipse;whiteSpace=wrap;html=1;labelBackgroundColor=#FF2424;fillColor=#007FFF;" vertex="1" parent="1">
          <mxGeometry x="730" y="180" width="170" height="40" as="geometry" />
        </mxCell>
        <mxCell id="lfYYvLIwnEgfPad5Opi9-52" style="edgeStyle=orthogonalEdgeStyle;rounded=0;orthogonalLoop=1;jettySize=auto;html=1;exitX=0;exitY=0.5;exitDx=0;exitDy=0;entryX=1;entryY=0.25;entryDx=0;entryDy=0;fontColor=#000000;" edge="1" parent="1" source="lfYYvLIwnEgfPad5Opi9-49" target="lfYYvLIwnEgfPad5Opi9-45">
          <mxGeometry relative="1" as="geometry" />
        </mxCell>
        <mxCell id="lfYYvLIwnEgfPad5Opi9-49" value="&lt;span style=&quot;background-color: rgb(255 , 255 , 255)&quot;&gt;Data de criação&lt;/span&gt;" style="ellipse;whiteSpace=wrap;html=1;labelBackgroundColor=#FF2424;fillColor=#007FFF;" vertex="1" parent="1">
          <mxGeometry x="740" y="230" width="170" height="40" as="geometry" />
        </mxCell>
        <mxCell id="lfYYvLIwnEgfPad5Opi9-56" value="&lt;h1&gt;1&lt;/h1&gt;" style="text;html=1;strokeColor=none;fillColor=none;align=center;verticalAlign=middle;whiteSpace=wrap;rounded=0;labelBackgroundColor=#FFFFFF;fontColor=#000000;" vertex="1" parent="1">
          <mxGeometry x="400" y="130" width="60" height="30" as="geometry" />
        </mxCell>
        <mxCell id="lfYYvLIwnEgfPad5Opi9-57" value="&lt;h1&gt;N&lt;/h1&gt;" style="text;html=1;strokeColor=none;fillColor=none;align=center;verticalAlign=middle;whiteSpace=wrap;rounded=0;labelBackgroundColor=#FFFFFF;fontColor=#000000;" vertex="1" parent="1">
          <mxGeometry x="460" y="250" width="60" height="30" as="geometry" />
        </mxCell>
        <mxCell id="lfYYvLIwnEgfPad5Opi9-58" value="&lt;h1&gt;N&lt;/h1&gt;" style="text;html=1;strokeColor=none;fillColor=none;align=center;verticalAlign=middle;whiteSpace=wrap;rounded=0;labelBackgroundColor=#FFFFFF;fontColor=#000000;" vertex="1" parent="1">
          <mxGeometry x="510" y="530" width="60" height="30" as="geometry" />
        </mxCell>
        <mxCell id="lfYYvLIwnEgfPad5Opi9-59" value="&lt;h1&gt;1&lt;/h1&gt;" style="text;html=1;strokeColor=none;fillColor=none;align=center;verticalAlign=middle;whiteSpace=wrap;rounded=0;labelBackgroundColor=#FFFFFF;fontColor=#000000;" vertex="1" parent="1">
          <mxGeometry x="410" y="430" width="60" height="30" as="geometry" />
        </mxCell>
        <mxCell id="lfYYvLIwnEgfPad5Opi9-61" value="&lt;h1&gt;1&lt;/h1&gt;" style="text;html=1;strokeColor=none;fillColor=none;align=center;verticalAlign=middle;whiteSpace=wrap;rounded=0;labelBackgroundColor=#FFFFFF;fontColor=#000000;" vertex="1" parent="1">
          <mxGeometry x="670" y="300" width="60" height="30" as="geometry" />
        </mxCell>
        <mxCell id="lfYYvLIwnEgfPad5Opi9-63" value="&lt;h1&gt;N&lt;/h1&gt;" style="text;html=1;strokeColor=none;fillColor=none;align=center;verticalAlign=middle;whiteSpace=wrap;rounded=0;labelBackgroundColor=#FFFFFF;fontColor=#000000;" vertex="1" parent="1">
          <mxGeometry x="540" y="370" width="60" height="30" as="geometry" />
        </mxCell>
      </root>
    </mxGraphModel>
  </diagram>
</mxfile>
